<svg width="25" height="17" viewBox="0 0 25 17" fill="none" xmlns="http://www.w3.org/2000/svg">
<path d="M23.5352 0.6875H1.46484C0.657129 0.6875 0 1.34463 0 2.15234V14.8477C0 15.6554 0.657129 16.3125 1.46484 16.3125H23.5352C24.3429 16.3125 25 15.6554 25 14.8477V2.15234C25 1.34463 24.3429 0.6875 23.5352 0.6875ZM24.0234 14.8477C24.0234 15.1169 23.8044 15.3359 23.5352 15.3359H1.46484C1.19561 15.3359 0.976562 15.1169 0.976562 14.8477V7.52344H24.0234V14.8477ZM24.0234 6.54688H0.976562V4.59375H24.0234V6.54688ZM24.0234 3.61719H0.976562V2.15234C0.976562 1.88311 1.19561 1.66406 1.46484 1.66406H23.5352C23.8044 1.66406 24.0234 1.88311 24.0234 2.15234V3.61719Z" fill="#828282"/>
<path d="M3.41797 13.3828H12.5C12.7696 13.3828 12.9883 13.1642 12.9883 12.8945C12.9883 12.6249 12.7696 12.4062 12.5 12.4062H3.41797C3.14834 12.4062 2.92969 12.6249 2.92969 12.8945C2.92969 13.1642 3.14834 13.3828 3.41797 13.3828Z" fill="#828282"/>
<path d="M3.41797 10.4531H9.57031C9.83994 10.4531 10.0586 10.2345 10.0586 9.96484C10.0586 9.69517 9.83994 9.47656 9.57031 9.47656H3.41797C3.14834 9.47656 2.92969 9.69517 2.92969 9.96484C2.92969 10.2345 3.14834 10.4531 3.41797 10.4531Z" fill="#828282"/>
</svg>
