<svg width="11" height="15" viewBox="0 0 11 15" fill="none" xmlns="http://www.w3.org/2000/svg">
<path d="M5.37292 0.461426C2.67767 0.461426 0.484863 2.65423 0.484863 5.34948C0.484863 8.73713 5.37773 14.5239 5.37773 14.5239C5.37773 14.5239 10.261 8.57054 10.261 5.34948C10.261 2.65423 8.06826 0.461426 5.37292 0.461426ZM6.84775 6.78071C6.44108 7.18729 5.90705 7.39062 5.37292 7.39062C4.83888 7.39062 4.30467 7.18729 3.89818 6.78071C3.08493 5.96755 3.08493 4.64438 3.89818 3.83114C4.29197 3.43718 4.81579 3.2202 5.37292 3.2202C5.93005 3.2202 6.45379 3.43726 6.84775 3.83114C7.661 4.64438 7.661 5.96755 6.84775 6.78071Z" fill="#5B6460"/>
</svg>
