<svg width="34" height="17" viewBox="0 0 34 17" fill="none" xmlns="http://www.w3.org/2000/svg">
<path d="M0.619484 9.18187H32.3805C32.7225 9.18187 33 8.87642 33 8.50006C33 8.12369 32.7225 7.81824 32.3805 7.81824H0.619484C0.277527 7.81824 0 8.12369 0 8.50006C0 8.87642 0.277527 9.18187 0.619484 9.18187Z" fill="#DADADA"/>
<path d="M25.154 16C25.2313 16 25.3087 15.9718 25.3679 15.916L32.9452 8.70203C33.0014 8.64794 33.0334 8.57487 33.0334 8.49835C33.0334 8.42182 33.0014 8.34875 32.9452 8.29467L25.3673 1.08415C25.2495 0.971951 25.0579 0.971951 24.94 1.08415C24.8222 1.19634 24.8222 1.37874 24.94 1.49093L32.3039 8.49835L24.94 15.5086C24.8222 15.6208 24.8222 15.8032 24.94 15.9154C24.9993 15.9718 25.0766 16 25.154 16Z" stroke="#DADADA" stroke-width="0.681818"/>
</svg>
