<svg width="34" height="17" viewBox="0 0 34 17" fill="none" xmlns="http://www.w3.org/2000/svg">
<path d="M33.3805 9.18187H1.61949C1.27753 9.18187 1 8.87642 1 8.50006C1 8.12369 1.27753 7.81824 1.61949 7.81824H33.3805C33.7225 7.81824 34 8.12369 34 8.50006C34 8.87642 33.7225 9.18187 33.3805 9.18187Z" fill="#333333"/>
<path d="M8.84602 16C8.76866 16 8.6913 15.9718 8.63207 15.916L1.05479 8.70203C0.998586 8.64794 0.966553 8.57487 0.966553 8.49835C0.966553 8.42182 0.998586 8.34875 1.05479 8.29467L8.63267 1.08415C8.75053 0.971951 8.94212 0.971951 9.05998 1.08415C9.17784 1.19634 9.17784 1.37874 9.05998 1.49093L1.69605 8.49835L9.05998 15.5086C9.17784 15.6208 9.17784 15.8032 9.05998 15.9154C9.00075 15.9718 8.92339 16 8.84602 16Z" fill="#333333" stroke="#333333" stroke-width="0.681818"/>
</svg>
