<svg width="18" height="17" viewBox="0 0 18 17" fill="none" xmlns="http://www.w3.org/2000/svg">
<path d="M1.30235 16C1.37972 16 1.45708 15.9718 1.51631 15.916L9.09358 8.70203C9.14979 8.64794 9.18182 8.57487 9.18182 8.49835C9.18182 8.42182 9.14979 8.34875 9.09358 8.29467L1.5157 1.08415C1.39785 0.971951 1.20625 0.971951 1.0884 1.08415C0.970541 1.19634 0.970541 1.37874 1.0884 1.49093L8.45232 8.49835L1.0884 15.5086C0.970541 15.6208 0.970541 15.8032 1.0884 15.9154C1.14763 15.9718 1.22499 16 1.30235 16Z" stroke="white" stroke-width="0.681818"/>
<path d="M16.8795 1C16.8022 1 16.7248 1.02819 16.6656 1.084L9.0883 8.29797C9.03209 8.35206 9.00006 8.42513 9.00006 8.50165C9.00006 8.57818 9.03209 8.65125 9.0883 8.70533L16.6662 15.9159C16.784 16.028 16.9756 16.028 17.0935 15.9159C17.2113 15.8037 17.2113 15.6213 17.0935 15.5091L9.72956 8.50165L17.0935 1.49136C17.2113 1.37917 17.2113 1.19678 17.0935 1.08458C17.0343 1.02819 16.9569 1 16.8795 1Z" stroke="white" stroke-width="0.681818"/>
</svg>
